<svg width="28" height="27" fill="none" xmlns="http://www.w3.org/2000/svg"><g opacity=".9" fill="#fff"><path d="M27.753 5.936l-8.492 7.583 8.492 7.583c.154-.289.247-.608.247-.948V6.884c0-.34-.093-.66-.247-.948zM25.54 4.672H2.462a2.66 2.66 0 00-1.055.222l10.854 9.705c.96.862 2.52.862 3.48 0l10.853-9.705a2.66 2.66 0 00-1.054-.222zM.247 5.936A2.007 2.007 0 000 6.884v13.27c0 .34.093.66.247.948l8.491-7.583L.247 5.936z"/><path d="M18.102 14.561l-1.201 1.08c-1.6 1.437-4.201 1.437-5.8 0l-1.202-1.08-8.492 7.583c.321.138.676.221 1.055.221H25.54a2.66 2.66 0 001.054-.221l-8.492-7.583z"/></g></svg>