<svg width="32" height="29" fill="none" xmlns="http://www.w3.org/2000/svg"><g opacity=".9" clip-path="url(#clip0)"><path d="M22.291 0H9.708C8.433 0 7.4.929 7.4 2.074v24.611c0 1.146 1.033 2.075 2.308 2.075h12.583c1.276 0 2.31-.929 2.31-2.075V2.075C24.6.928 23.566 0 22.29 0zm-7.835 1.226h3.088c.11 0 .201.082.201.182 0 .1-.09.18-.201.18h-3.088c-.112 0-.202-.08-.202-.18 0-.1.09-.182.202-.182zM11.377.791c.178 0 .323.13.323.29 0 .16-.144.29-.322.29-.179 0-.323-.13-.323-.29 0-.16.145-.29.322-.29zM9.918.618c.286 0 .516.207.516.463 0 .255-.23.463-.515.463-.285 0-.515-.208-.515-.463 0-.256.23-.463.515-.463zm6.889 27.089h-1.612c-.51 0-.925-.372-.925-.831 0-.46.414-.831.925-.831h1.612c.51 0 .925.372.925.83 0 .46-.414.832-.925.832zm6.816-2.319H8.377V3.371h15.245v22.017z" fill="#fff"/></g><defs><clipPath id="clip0"><path fill="#fff" d="M0 0h32v28.759H0z"/></clipPath></defs></svg>