<svg width="3623" height="1180" fill="none" xmlns="http://www.w3.org/2000/svg"><path d="M393.306 136.598c66.67 82.111 142.464 157.905 234.4 202.82 124.569 60.705 290.193 55.091 390.204-58.6C1133 149.932 1199.32 19.398 1384.24 2.555c130.54-11.93 285.28 44.915 356.87 166.326 42.46 71.934 65.97 155.799 101.41 232.295 84.56 183.871 228.08 227.733 396.16 129.481 80.36-47.02 171.24-101.058 255.81-69.828 110.88 41.055 152.99 211.241 268.43 235.453 63.17 13.334 125.98-22.809 186.33-49.126 143.87-62.46 203.87 73.688 334.41 56.494 32.63-4.21 62.46-23.861 94.39-32.984 32.98-9.474 97.9 0 86.67 51.582" stroke="#fff" stroke-opacity=".16" stroke-width="1.007" stroke-miterlimit="10" stroke-linecap="round" stroke-linejoin="round"/><path d="M399.271 178.707c66.319 81.759 143.868 153.342 236.154 193.345 66.32 28.773 143.167 39.3 215.101 25.966 63.513-11.93 123.867-42.108 170.884-94.041 86.32-95.795 146.68-191.59 247.39-242.47 33.33-16.844 71.58-28.774 116.14-34.389 129.14-16.14 281.43 33.336 357.22 148.781 45.27 69.128 71.58 151.589 108.08 228.085 18.59 39.3 39.65 72.986 63.16 100.356 83.16 97.55 193.34 109.13 327.74 48.425 42.46-19.3 87.37-45.968 132.29-65.619 58.25-25.615 120-35.089 177.9-14.035 104.92 38.949 147.03 195.801 256.16 220.013 59.65 13.334 118.95-18.598 176.15-41.757 135.45-55.091 193.69 69.478 316.86 52.284 30.88-4.211 58.95-22.808 89.13-31.932 31.23-9.123 91.23-1.754 82.11 43.862" stroke="#fff" stroke-opacity=".16" stroke-width="1.007" stroke-miterlimit="10" stroke-linecap="round" stroke-linejoin="round"/><path d="M405.23 220.465c65.619 81.408 144.922 148.43 237.559 184.221 66.32 25.616 142.114 32.985 212.995 17.896 62.46-13.334 121.411-44.213 168.436-94.742 85.61-92.638 147.72-186.678 247.03-238.962 32.98-17.545 70.53-30.178 114.04-36.845 127.73-20 277.91 21.405 357.21 130.886 48.08 66.319 77.2 147.377 115.1 223.873 18.95 38.95 40 72.636 62.81 100.357 81.76 98.602 187.73 115.095 322.13 67.372 50.88-18.246 103.51-49.827 156.15-73.688 67.72-30.529 141.06-40.354 208.78-15.44 98.6 36.143 141.06 180.362 243.87 204.574 56.15 12.983 111.94-14.036 165.63-34.037 126.67-47.371 183.87 65.267 298.96 48.073 29.13-4.211 55.45-21.405 83.87-30.528 29.47-9.124 84.92-3.509 77.55 36.142" stroke="#fff" stroke-opacity=".16" stroke-width="1.007" stroke-miterlimit="10" stroke-linecap="round" stroke-linejoin="round"/><path d="M411.2 262.572c65.267 81.057 146.325 143.517 239.313 174.747 66.32 22.107 141.061 26.668 210.539 9.474 61.407-15.088 119.306-46.318 166.328-95.795 85.27-89.83 149.13-182.116 246.68-235.102 32.63-17.896 69.48-31.23 111.59-39.3 126.67-24.213 274.05 9.474 357.56 113.34 50.88 63.512 83.16 142.815 121.76 219.311 19.3 38.248 40.01 72.285 62.81 100.708 79.66 100.006 183.52 123.166 316.87 85.97 59.65-16.492 119.65-54.038 180.01-82.11 77.19-35.792 161.76-45.266 239.66-17.194 92.29 33.686 135.1 164.922 231.59 189.134 52.29 12.984 104.92-9.474 155.1-26.317 117.9-39.652 173.7 60.705 281.42 43.862 27.02-4.21 51.93-20.352 78.6-29.124 27.37-9.124 78.25-5.264 72.99 28.423" stroke="#fff" stroke-opacity=".16" stroke-width="1.007" stroke-miterlimit="10" stroke-linecap="round" stroke-linejoin="round"/><path d="M417.164 304.679c64.916 80.355 147.378 138.956 240.717 165.624 66.319 18.948 140.359 20.352 208.433 1.053 60.355-16.844 117.2-48.775 164.216-96.848 84.92-87.023 150.19-177.204 246.34-231.594 32.28-18.597 68.42-32.633 109.48-41.756 125.27-28.774 270.54-2.457 357.56 95.444 53.69 60.355 88.78 138.605 128.78 215.101 19.65 37.897 40.35 71.934 62.81 101.059 77.9 101.409 180.01 132.99 311.25 104.918 68.78-14.737 136.15-57.898 203.87-90.181 86.32-40.704 182.82-50.178 270.54-18.597 86.33 31.23 129.14 149.483 219.32 173.695 48.77 12.983 97.9-4.913 144.92-18.949 109.13-31.932 163.87 56.495 263.52 39.652 25.27-4.211 48.78-19.3 73.34-28.072 25.62-9.124 71.58-7.018 68.78 20.703" stroke="#fff" stroke-opacity=".16" stroke-width="1.007" stroke-miterlimit="10" stroke-linecap="round" stroke-linejoin="round"/><path d="M423.134 346.437c64.565 80.004 148.781 134.043 242.471 156.149 66.32 15.44 139.306 13.685 205.977-7.018 59.302-18.597 114.744-50.88 161.768-97.549 84.21-84.216 151.23-172.292 245.63-227.734 31.93-18.948 67.37-33.686 107.37-44.564 124.22-32.984 267.03-14.386 357.92 77.549 56.84 57.547 94.74 134.394 135.44 210.89 20.01 37.195 40.71 71.583 62.81 101.41 76.5 102.462 176.51 143.868 305.99 123.867 77.9-11.931 152.29-62.109 227.73-98.252 95.8-45.967 203.87-55.442 301.42-20.352 80.01 28.774 123.17 134.043 206.68 158.606 45.27 12.984 90.53-.701 134.4-11.228 100.35-24.212 153.69 52.284 245.98 35.44 23.51-4.21 45.26-17.895 68.07-26.668 23.86-9.123 64.92-8.772 64.22 12.983" stroke="#fff" stroke-opacity=".16" stroke-width="1.007" stroke-miterlimit="10" stroke-linecap="round" stroke-linejoin="round"/><path d="M429.099 388.544c64.214 79.654 149.833 129.482 244.225 147.027 66.32 12.281 138.254 7.369 203.872-15.44 58.249-20.352 112.639-53.336 159.654-98.602 83.87-81.409 152.65-167.379 245.28-224.224 31.58-19.3 66.32-35.09 105.27-47.021 122.82-37.546 263.53-26.317 357.92 60.004 59.65 54.74 100.36 130.183 142.46 206.328 20.36 36.494 40.71 71.233 62.82 101.761 74.74 103.866 173.34 128.78 300.36 142.816 87.03 9.474 168.44-65.969 251.6-106.323 104.92-50.88 224.57-60.354 332.3-21.755 73.69 26.317 117.2 118.603 194.4 143.166 41.75 12.983 83.51 3.86 124.22-3.509 91.23-16.843 143.86 48.073 228.08 31.23 21.4-4.21 41.76-16.843 62.81-25.264 21.76-9.124 58.25-10.527 59.65 5.263" stroke="#fff" stroke-opacity=".16" stroke-width="1.007" stroke-miterlimit="10" stroke-linecap="round" stroke-linejoin="round"/><path d="M435.417 430.651c63.863 79.303 151.237 124.92 245.629 137.552 66.319 9.124 137.552 1.053 201.415-23.51 57.197-22.107 110.533-55.442 157.549-99.655 83.52-78.602 153.7-162.466 244.93-220.365 31.23-20.001 65.62-36.493 102.82-49.476 121.41-42.108 260.01-38.599 358.26 42.108 62.81 51.582 105.97 125.972 149.13 202.117 20.36 36.143 41.06 70.531 62.82 102.112 72.98 104.918 170.88 145.272 295.1 161.764 95.8 12.632 184.57-70.18 275.46-114.744 114.39-56.144 245.63-65.267 362.83-23.159 67.37 24.212 111.23 103.164 182.11 127.727 38.25 12.983 76.5 8.421 113.69 3.86 82.46-9.475 133.7 43.862 210.54 27.019 19.65-4.562 38.25-15.44 57.55-23.861 20-8.773 51.58-12.633 55.09-2.456" stroke="#fff" stroke-opacity=".16" stroke-width="1.007" stroke-miterlimit="10" stroke-linecap="round" stroke-linejoin="round"/><path d="M441.378 472.41c63.513 78.952 152.29 120.358 247.383 128.428 66.32 5.615 136.5-5.263 199.311-31.931 56.144-23.51 108.077-57.899 155.098-100.357 83.16-75.794 155.1-157.554 244.58-216.856 30.87-20.352 64.56-37.897 100.7-51.933 120.01-46.669 256.86-50.529 358.27 24.563 65.62 48.424 111.59 121.762 156.15 197.556 20.7 35.792 41.41 70.18 62.81 102.112 71.58 105.971 167.73 163.168 289.49 180.712 104.57 14.738 200.72-74.039 298.97-122.814 123.87-61.056 266.33-70.18 393.71-24.914 61.05 21.756 105.27 87.725 169.83 112.288 34.74 12.983 69.48 12.632 103.52 11.579 73.33-2.105 123.86 39.301 192.64 22.809 17.9-4.562 34.74-14.387 52.28-22.809 18.25-8.772 44.92-14.386 50.88-10.176" stroke="#fff" stroke-opacity=".16" stroke-width="1.007" stroke-miterlimit="10" stroke-linecap="round" stroke-linejoin="round"/><path d="M447.343 514.516c62.811 78.602 153.693 115.797 248.787 118.955 66.32 2.456 135.447-11.58 197.205-40.002 55.091-25.265 105.971-60.004 152.995-101.41 82.46-72.987 156.15-152.992 244.22-213.346 30.53-21.054 63.51-39.301 98.6-54.39 118.61-51.582 253.35-62.811 358.62 6.667 68.78 45.617 117.2 117.551 162.82 193.345 21.05 35.09 41.41 69.829 62.81 102.463 69.83 107.024 163.52 182.116 284.23 199.31 113.69 16.492 216.85-78.25 322.83-130.885 132.99-66.32 287.38-75.092 424.58-26.317 55.09 19.299 99.31 72.636 157.56 96.848 30.87 12.983 62.1 16.843 92.98 19.299 64.57 4.913 114.05 35.09 175.1 18.598 15.79-4.562 31.23-12.984 47.02-21.405 16.5-8.773 38.25-16.141 46.32-17.545" stroke="#fff" stroke-opacity=".16" stroke-width="1.007" stroke-miterlimit="10" stroke-linecap="round" stroke-linejoin="round"/><path d="M453.311 556.623c62.46 78.25 154.746 110.884 250.542 109.831 66.319-.702 134.745-18.247 194.748-48.424 54.039-27.019 103.869-62.46 150.889-102.462 82.11-70.18 157.2-148.08 243.87-209.487 29.83-21.405 62.46-40.704 96.5-56.845 117.2-56.144 250.19-75.093 358.62-11.229 71.58 42.459 122.81 113.34 169.83 189.134 21.41 34.388 41.76 69.478 62.81 102.813 68.08 108.428 158.26 207.732 278.97 218.259 123.51 10.878 232.99-82.11 346.69-139.306 142.46-71.233 308.08-79.654 455.46-28.072 48.78 17.194 93.34 57.196 145.27 81.408 27.37 12.983 55.1 21.054 82.82 26.669 55.44 11.579 103.86 30.879 157.2 14.386 14.03-4.561 27.72-11.93 41.76-20.001 14.38-8.772 31.58-17.896 41.75-25.265" stroke="#fff" stroke-opacity=".16" stroke-width="1.007" stroke-miterlimit="10" stroke-linecap="round" stroke-linejoin="round"/><path d="M459.271 598.378C564.19 729.614 759.641 720.841 903.86 642.24c144.22-78.601 258.26-210.539 391.95-309.141 133.7-98.603 309.15-163.519 453.01-88.427 108.43 56.846 172.65 178.256 239.32 287.737 66.67 109.48 153.69 221.417 273.35 237.207 131.93 17.545 249.13-85.97 370.55-147.377 151.58-76.496 328.79-84.567 486.34-29.476 130.89 45.617 284.58 205.978 418.62 58.601" stroke="#fff" stroke-opacity=".16" stroke-width="1.007" stroke-miterlimit="10" stroke-linecap="round" stroke-linejoin="round"/><path d="M463.487 623.294c117.551 138.254 328.441 128.429 483.188 39.301C1084.58 582.941 1195.46 455.916 1326 361.875c134.39-96.848 308.44-149.834 448.8-70.531 106.67 61.057 172.99 179.309 245.27 275.105 71.59 95.093 156.86 188.783 273 195.801 127.38 7.72 242.12-94.041 362.48-151.588 148.08-70.882 318.62-73.689 470.56-18.949 127.37 45.968 293.35 211.592 418.62 56.495" stroke="#fff" stroke-opacity=".16" stroke-width="1.007" stroke-miterlimit="10" stroke-linecap="round" stroke-linejoin="round"/><path d="M467.694 648.21c130.183 145.623 356.864 134.395 521.435 34.739 131.941-80.004 238.961-203.17 366.341-292.649 135.44-94.743 308.09-136.5 444.59-52.635 104.91 64.565 172.64 179.66 251.59 262.472 76.5 80.356 160.01 156.501 272.65 154.396 122.46-2.457 235.1-101.761 354.41-155.448 144.21-65.268 308.44-62.46 455.11-8.071 123.52 46.319 301.77 217.206 418.62 54.038" stroke="#fff" stroke-opacity=".16" stroke-width="1.007" stroke-miterlimit="10" stroke-linecap="round" stroke-linejoin="round"/><path d="M471.555 672.771c142.816 152.641 385.287 141.062 560.035 29.827 125.97-80.005 229.49-199.661 353.71-284.228 136.14-92.988 307.73-122.815 440.37-34.739 103.17 68.776 171.94 180.011 257.56 249.84 80.71 65.618 163.17 124.218 272.3 112.989 117.55-11.93 228.08-109.48 346.34-159.659 140.71-59.652 298.26-51.582 439.67 2.808 120.01 46.318 310.2 223.171 418.62 51.932" stroke="#fff" stroke-opacity=".16" stroke-width="1.007" stroke-miterlimit="10" stroke-linecap="round" stroke-linejoin="round"/><path d="M475.77 697.688c155.448 159.659 413.709 147.728 598.28 25.265 120.36-80.005 220.02-195.802 341.08-275.807 137.2-90.883 307.03-109.129 435.81-16.843 101.41 72.636 170.54 180.713 263.88 237.207 84.56 51.232 166.32 91.936 271.94 71.584 112.99-21.756 221.07-117.551 338.27-163.87 136.85-54.038 287.74-40.704 423.89 13.334 116.49 46.67 318.61 228.786 418.62 49.477" stroke="#fff" stroke-opacity=".16" stroke-width="1.007" stroke-miterlimit="10" stroke-linecap="round" stroke-linejoin="round"/><path d="M479.978 722.599c168.08 166.677 442.483 155.097 636.882 20.703 114.74-79.303 210.54-191.941 328.09-267.736 137.9-88.777 306.68-95.093 431.6 1.053 99.66 76.847 168.79 181.415 269.84 224.575 87.73 37.195 169.49 59.653 271.6 29.827 108.08-31.23 214.05-125.271 330.55-167.73 132.99-48.424 277.56-29.475 408.44 24.212 112.99 47.02 327.04 234.4 418.62 47.371" stroke="#fff" stroke-opacity=".16" stroke-width="1.007" stroke-miterlimit="10" stroke-linecap="round" stroke-linejoin="round"/><path d="M484.185 747.514c180.713 174.045 471.257 162.466 675.125 16.141 109.48-78.601 201.07-188.082 315.46-259.314 138.96-86.672 305.99-81.409 427.4 18.948 97.9 81.058 166.32 183.169 276.15 211.592 90.54 23.51 172.65 27.721 271.25-11.579 103.16-40.705 206.68-133.342 322.47-171.941 129.13-43.16 267.39-18.948 392.66 34.739 109.48 47.021 335.46 240.015 418.62 44.915" stroke="#fff" stroke-opacity=".16" stroke-width="1.007" stroke-miterlimit="10" stroke-linecap="round" stroke-linejoin="round"/><path d="M488.4 772.075c193.345 181.063 500.732 170.536 713.38 11.579 104.21-77.548 191.94-184.221 302.82-250.892 140.01-84.216 305.28-67.373 423.19 36.844 96.14 85.269 164.22 185.626 282.12 198.96 93.34 10.878 175.8-4.211 270.89-52.986 98.25-50.178 199.66-141.412 314.41-176.151 125.27-37.897 257.21-8.071 377.21 45.617 105.97 47.371 344.23 245.98 418.63 42.809" stroke="#fff" stroke-opacity=".16" stroke-width="1.007" stroke-miterlimit="10" stroke-linecap="round" stroke-linejoin="round"/><path d="M492.257 796.989c205.977 188.082 530.203 178.607 751.973 6.667 98.96-76.496 182.47-180.362 289.84-242.822 141.07-82.11 304.58-53.337 418.98 55.091 94.39 89.479 162.11 177.204 288.44 186.327 95.79 7.018 178.95-36.142 270.54-94.391 93.69-59.653 192.64-149.834 306.33-180.362 121.06-32.634 246.69 3.158 361.43 56.494 102.46 47.723 352.65 251.595 418.62 40.354" stroke="#fff" stroke-opacity=".16" stroke-width="1.007" stroke-miterlimit="10" stroke-linecap="round" stroke-linejoin="round"/><path d="M496.468 821.905C715.078 1017 1056.5 1009.28 1286.69 824.01c93.69-75.443 173.35-176.151 277.21-234.4 142.47-79.654 303.88-39.3 414.76 72.987 92.29 93.69 160.36 192.293 294.76 173.695 99.65-13.685 182.11-68.074 269.84-135.798 89.13-68.776 185.27-157.904 298.26-184.222 117.2-27.37 236.51 14.387 345.99 67.022 98.95 48.073 361.07 257.209 418.62 38.248" stroke="#fff" stroke-opacity=".16" stroke-width="1.007" stroke-miterlimit="10" stroke-linecap="round" stroke-linejoin="round"/><path d="M500.679 846.467c231.242 202.113 590.561 196.503 828.821-2.456 88.78-74.39 163.87-171.94 264.58-225.978 143.52-77.198 302.82-25.265 410.55 90.882 90.18 98.252 158.96 196.152 300.72 161.063 103.16-25.616 185.63-99.656 269.49-177.204 84.57-77.9 178.26-166.326 290.19-188.433 113.34-22.457 225.98 25.265 330.55 77.9 95.09 48.424 369.5 262.823 418.62 36.142" stroke="#fff" stroke-opacity=".16" stroke-width="1.007" stroke-miterlimit="10" stroke-linecap="round" stroke-linejoin="round"/><path d="M504.89 871.378c243.875 209.482 621.44 206.332 867.07-7.018 84.22-72.987 154.75-168.08 251.59-217.908 144.58-74.391 302.48-11.58 406.35 108.779 88.42 102.111 158.25 200.012 307.03 148.43 107.38-37.547 189.14-131.587 269.14-218.61 80.01-87.023 170.89-174.748 282.12-192.643 109.48-17.545 215.81 36.142 314.76 88.426 91.58 48.424 377.92 268.788 418.62 33.686" stroke="#fff" stroke-opacity=".16" stroke-width="1.007" stroke-miterlimit="10" stroke-linecap="round" stroke-linejoin="round"/><path d="M458.922 836.643c141.061 119.305 331.599 173.697 509.505 148.781 135.443-18.949 267.033-72.637 375.113-147.729 25.96-18.247 50.53-37.546 75.09-56.494 56.14-43.863 109.13-88.076 174.75-112.639 19.65-7.369 39.3-12.632 59.65-15.439 123.87-17.545 254.05 45.266 348.79 140.359 24.57 24.563 48.08 48.424 71.94 69.478 67.02 59.302 136.5 96.146 245.63 56.494 74.74-27.37 137.9-80.355 197.2-139.306 26.67-26.668 52.29-54.389 77.9-81.76 82.11-87.373 173.34-176.501 283.18-201.415 30.17-7.018 60.35-8.422 90.18-6.667 49.12 3.158 97.55 16.141 145.62 34.037 26.67 10.176 53.34 22.457 78.95 35.441 39.3 20.001 106.32 68.776 174.75 105.269 104.57 55.442 217.91 85.97 250.19-47.722" stroke="#fff" stroke-opacity=".16" stroke-width="1.021" stroke-miterlimit="10" stroke-linecap="round" stroke-linejoin="round"/><path d="M413.307 801.551c142.114 118.954 340.021 177.203 518.277 146.324 138.256-23.861 272.296-78.25 383.186-137.552 26.31-14.036 51.58-28.774 76.14-42.81 56.5-31.931 107.73-63.512 171.59-77.899 18.95-4.211 38.25-6.667 57.9-7.369 121.41-2.456 252.29 62.109 352.65 148.781 25.97 22.458 51.23 43.862 76.5 62.46 70.88 51.933 143.51 82.11 250.89 40.704 75.44-28.773 140.36-82.11 201.06-141.412 27.37-26.668 53.69-54.74 80.01-82.11 83.86-88.076 175.45-178.257 283.88-210.539 29.82-8.773 59.3-12.983 88.77-13.685 48.78-1.755 96.85 5.614 145.28 19.65 27.72 7.72 54.74 18.949 81.05 31.932 42.11 20.703 108.43 71.583 175.1 110.182 103.17 59.653 216.16 97.199 256.51-28.774" stroke="#fff" stroke-opacity=".16" stroke-width="1.035" stroke-miterlimit="10" stroke-linecap="round" stroke-linejoin="round"/><path d="M367.339 766.462c143.517 118.603 348.442 180.362 527.4 144.219 141.061-28.774 277.211-83.865 391.251-127.025 26.67-10.176 52.64-20.001 77.55-28.774 56.49-20.001 106.32-38.95 168.08-43.16 18.25-1.053 36.84-1.053 55.79 1.052 118.96 12.633 250.9 78.602 356.52 157.203 27.37 20.703 54.74 39.3 81.4 55.442 74.4 44.564 150.19 67.723 256.51 25.264 76.15-30.177 142.47-83.864 204.58-143.166 28.07-26.668 55.44-54.74 82.46-82.461 85.62-88.427 177.55-179.66 284.93-219.663 29.12-10.878 58.6-17.194 87.37-21.054 48.42-6.316 96.15-4.912 145.27 4.913 28.42 5.614 56.15 15.439 83.16 28.423 44.92 21.405 110.89 74.741 175.45 115.094 101.41 63.513 214.05 108.428 262.48-9.825" stroke="#fff" stroke-opacity=".16" stroke-width="1.049" stroke-miterlimit="10" stroke-linecap="round" stroke-linejoin="round"/><path d="M321.721 731.721c144.921 117.902 357.214 183.871 536.524 141.763 143.865-33.686 281.775-89.83 399.325-116.849 27.02-6.316 53.33-11.229 78.95-15.089 56.14-8.07 104.92-14.387 164.92-8.07 17.55 1.754 35.79 4.561 54.04 9.123 116.5 28.072 249.49 95.093 360.37 165.975 29.13 18.598 57.9 34.739 86.32 48.424 77.9 37.546 156.86 53.692 262.13 9.825 76.84-31.932 144.57-85.619 208.43-145.272 28.77-27.019 56.84-55.091 84.57-83.163 87.37-88.777 180.01-181.414 285.98-228.435 28.77-12.983 57.55-21.405 85.97-28.072 47.72-11.229 95.44-15.439 144.92-9.825 29.12 3.158 57.55 12.282 85.27 24.914 47.72 22.107 112.99 77.548 175.8 120.358 99.65 67.724 212.29 119.657 268.79 8.773" stroke="#fff" stroke-opacity=".16" stroke-width="1.063" stroke-miterlimit="10" stroke-linecap="round" stroke-linejoin="round"/><path d="M275.756 696.633C421.73 814.184 641.393 883.661 821.053 835.939c146.675-38.599 285.987-95.795 407.747-106.322 27.37-2.456 53.68-2.807 80.35-1.053 55.44 3.158 103.52 10.176 161.77 26.669 16.84 4.912 34.39 10.176 52.28 17.194 114.04 43.16 247.74 111.585 363.88 174.396 30.53 16.493 61.06 30.178 91.24 41.406 81.4 30.181 163.52 39.301 267.73-5.614 77.55-33.336 146.68-87.374 212.3-147.378 29.47-27.019 58.24-55.091 86.67-83.513 89.48-89.129 182.11-182.819 286.68-237.559 28.07-14.737 56.5-25.966 84.57-35.44 47.37-16.142 94.74-25.967 144.57-24.563 30.18.701 59.3 8.772 87.37 21.404 50.53 22.809 115.45 80.707 176.15 125.271 97.9 71.583 210.54 130.885 274.76 27.721" stroke="#fff" stroke-opacity=".16" stroke-width="1.077" stroke-miterlimit="10" stroke-linecap="round" stroke-linejoin="round"/><path d="M229.784 661.892c147.378 117.201 374.058 190.187 554.42 137.202 149.483-43.863 290.546-102.463 415.816-96.147 27.72 1.404 54.39 5.615 81.41 12.633 55.09 14.387 102.11 34.388 158.25 61.407 16.49 7.72 33.34 16.141 50.53 25.265 111.59 58.951 246.33 128.078 367.74 182.818 32.29 14.387 64.22 25.62 96.15 34.39 84.92 23.16 170.19 24.91 273-21.407 77.9-35.09 148.78-89.128 215.8-149.132 30.18-27.019 59.65-55.442 88.78-83.864 91.23-89.48 184.57-184.573 287.74-246.682 27.72-16.843 55.44-30.528 83.16-42.81 46.67-21.054 94.04-36.844 144.22-39.3 30.88-1.404 60.7 5.263 89.48 17.895 53.68 23.511 117.55 83.865 176.5 130.184 96.15 75.794 208.43 142.114 281.07 46.318" stroke="#fff" stroke-opacity=".16" stroke-width="1.091" stroke-miterlimit="10" stroke-linecap="round" stroke-linejoin="round"/><path d="M184.166 626.804c148.781 116.498 382.479 192.994 563.543 134.745 151.939-49.126 295.101-109.129 423.881-85.619 28.08 5.263 55.1 13.685 82.82 26.668 54.74 25.265 100.7 58.6 155.09 96.146 15.79 10.878 31.94 21.756 48.78 33.336 109.13 74.39 244.93 144.57 371.6 191.24 33.69 12.28 67.37 21.4 100.71 27.37 88.42 16.14 176.85 10.53 278.61-36.84 78.6-36.849 151.24-90.887 219.66-151.242 30.88-27.019 61.06-55.442 90.89-84.216 92.99-89.83 186.67-185.976 288.44-255.454 27.37-18.598 54.38-34.739 81.4-49.828 46.32-25.615 93.34-47.722 143.87-54.038 31.58-4.211 62.11 1.755 91.59 14.387 56.49 24.212 119.65 86.672 176.85 135.447 94.39 80.005 206.68 153.342 287.03 65.267" stroke="#fff" stroke-opacity=".16" stroke-width="1.105" stroke-miterlimit="10" stroke-linecap="round" stroke-linejoin="round"/><path d="M138.202 592.064c150.184 116.148 391.252 196.153 572.315 132.289 154.747-54.389 299.663-116.147 432.303-75.443 28.43 8.772 56.15 22.107 84.22 40.353 54.74 35.792 99.3 82.812 151.94 131.236 15.09 13.685 30.88 27.371 47.02 41.407 106.32 90.18 243.52 161.064 375.46 199.664 35.09 10.17 70.53 16.84 105.62 20.35 91.94 9.12 183.52-3.86 284.23-52.28 79.3-38.253 153.34-92.642 223.52-152.997 31.58-27.37 62.46-55.793 93.34-84.917 94.74-90.181 189.13-187.38 289.49-264.578 26.67-20.703 53.69-39.3 80.01-57.196 45.96-30.528 92.28-58.6 143.51-68.776 32.29-6.667 63.52-1.404 93.69 10.877 59.31 24.914 122.12 89.831 177.21 140.36 92.64 84.566 204.57 164.22 293 83.865" stroke="#fff" stroke-opacity=".16" stroke-width="1.118" stroke-miterlimit="10" stroke-linecap="round" stroke-linejoin="round"/><path d="M92.583 556.975c151.237 115.797 399.673 198.96 581.439 130.184 157.553-59.653 304.58-123.166 440.378-64.917 28.77 12.282 57.2 30.178 85.62 54.039 55.09 46.669 97.9 107.375 148.43 165.975a995.395 995.395 0 0045.26 49.477c103.52 105.62 242.12 177.557 379.33 208.087 36.84 8.07 73.68 12.63 110.53 13.33 95.44 2.46 190.19-18.25 289.84-68.07 80.01-40.01 155.45-94.396 227.03-155.102 32.29-27.37 64.22-55.793 95.45-85.268 96.49-90.532 191.59-188.784 290.19-273.701 26.32-22.458 52.64-43.512 78.6-64.215 45.27-35.44 91.59-69.478 143.17-83.513 33.33-9.124 64.91-4.913 95.79 7.368 62.11 25.265 124.22 92.989 177.56 145.272 90.53 88.778 202.82 175.45 299.31 102.814" stroke="#fff" stroke-opacity=".16" stroke-width="1.132" stroke-miterlimit="10" stroke-linecap="round" stroke-linejoin="round"/><path d="M46.619 522.236C199.26 637.681 454.363 723.651 637.18 649.963c160.01-65.267 309.493-130.535 448.449-54.39 29.47 16.142 58.25 38.248 87.02 68.075 55.44 57.547 96.85 131.587 145.27 200.714 14.04 19.65 28.43 38.949 43.52 57.547 100.7 121.411 240.71 193.701 382.83 216.501 38.24 5.97 76.84 8.07 115.44 6.32 98.96-4.21 196.86-32.63 295.46-83.51 80.35-41.76 157.55-96.15 230.89-157.207 32.98-27.37 65.62-56.143 97.55-85.619 98.6-90.883 194.05-190.187 291.25-282.473 25.61-24.212 51.58-48.073 77.19-71.584 44.57-40.704 90.89-80.355 142.82-98.251 34.04-11.58 66.67-8.422 97.9 3.86 64.92 25.966 126.32 96.146 177.9 150.535 88.78 92.988 201.07 186.678 305.29 121.411" stroke="#fff" stroke-opacity=".16" stroke-width="1.146" stroke-miterlimit="10" stroke-linecap="round" stroke-linejoin="round"/><path d="M1 487.148c154.044 114.744 416.166 204.574 599.335 125.271 197.205-85.268 378.619-165.624 544.945 37.546 71.58 87.725 116.85 207.381 183.87 301.071 124.57 174.044 318.97 244.924 507.05 224.574 188.08-20.35 370.9-123.87 535.47-257.909 164.92-134.044 314.76-298.615 467.75-456.168 44.21-45.266 89.83-91.234 142.81-112.99 108.78-44.564 204.93 73.689 277.92 156.15 86.67 97.55 198.96 197.907 311.59 140.36" stroke="#fff" stroke-opacity=".16" stroke-width="1.16" stroke-miterlimit="10" stroke-linecap="round" stroke-linejoin="round"/></svg>