<svg width="1545" height="409" fill="none" xmlns="http://www.w3.org/2000/svg"><path d="M1242.33 240.216l-57.66-80.069c-8.76 1.02-16.48 1.53-23.69 1.53h-68.99v78.539h-17.5V.52h86.49c30.38 0 54.06 7.14 71.57 21.42 17.5 14.28 25.74 34.169 25.74 59.158 0 18.87-5.15 34.68-14.93 47.94-9.78 12.75-23.68 21.929-42.22 27.029l60.24 83.639h-19.05v.51zm-81.35-93.839c25.75 0 45.31-5.61 59.21-16.829 13.9-11.22 20.6-27.54 20.6-47.94s-6.7-36.72-20.6-47.939c-13.9-11.22-33.46-16.83-59.21-16.83h-68.99v130.049h68.99v-.511zM233.228.52L125.624 240.216h-18.02L0 .52h19.564l97.822 217.256L214.693.52h18.535z" fill="#1E4FC6"/><path d="M483.447 125.978h128.712v-15.3H465.427v129.538h166.812v-15.81H482.932v-98.428h.515zM465.942.52v15.81h166.812V.52H465.942zm911.798 0v15.81h166.81V.52h-166.81zm17.51 223.886v-98.428h128.71v-15.3h-146.73v129.538h167.32v-15.81h-149.3zM331.57.51l-97.822 216.747-39.643-87.209-9.268 21.42 39.644 88.229h17.505L349.59 0h-18.02v.51zM53.03 369.237c0 5.1-2.06 9.18-6.178 12.24-4.12 3.06-9.783 4.08-18.02 4.08H0v-60.18h28.317c7.208 0 12.871 1.53 16.99 4.08 4.119 2.55 6.178 6.63 6.178 11.22 0 3.06-1.03 6.12-2.574 8.16-1.545 2.04-4.119 4.08-7.208 5.1 7.208 3.06 11.327 7.65 11.327 15.3zm-42.218-17.34h16.475c4.119 0 7.208-.51 9.782-2.04 2.06-1.53 3.09-3.57 3.09-6.63 0-5.61-4.12-8.67-12.872-8.67H10.812v17.34zm27.802 23.46c2.06-1.53 3.604-3.57 3.604-6.63s-1.03-5.61-3.09-7.14c-2.059-1.53-5.148-2.04-9.781-2.04h-18.02v17.85h17.505c4.118 0 7.722-.51 9.782-2.04zm29.35-49.463h10.812v43.859l37.069-43.859h9.782v60.179h-10.812v-43.86l-37.069 43.86H67.45v-60.179h.515zm122.535 3.56c4.633 2.55 8.237 6.12 10.812 10.71 2.574 4.59 4.118 9.69 4.118 15.81 0 6.12-1.544 11.219-4.118 15.809-2.575 4.59-6.179 8.16-10.812 10.71-4.634 2.55-9.782 4.08-15.961 4.08-4.118 0-8.237-1.02-11.841-2.55-3.604-1.53-6.693-4.08-9.268-7.14v31.11h-10.811v-82.109h10.297v9.69c2.574-3.06 5.663-5.61 9.267-7.65 3.604-1.53 7.723-2.55 12.356-2.55 5.664 0 11.327 1.53 15.961 4.08zm-6.178 44.879c3.089-1.53 5.663-4.08 7.208-7.65 1.544-3.06 2.574-7.14 2.574-11.22 0-4.08-1.03-7.649-2.574-11.219-1.545-3.06-4.119-5.61-7.208-7.65-3.09-1.53-6.694-2.55-10.297-2.55-3.604 0-7.208 1.02-10.298 2.55-3.089 1.53-5.663 4.08-7.207 7.65-1.545 3.06-2.575 6.629-2.575 11.219 0 4.08 1.03 7.65 2.575 11.22 1.544 3.06 4.118 5.61 7.207 7.65 3.09 2.04 6.694 2.55 10.298 2.55 3.603 0 7.207-.51 10.297-2.55zm79.277-38.749h-22.139v50.489h-10.812v-50.489h-22.138v-9.69h55.089v9.69zm74.663-9.69l-29.346 65.789c-2.575 6.12-5.664 10.2-9.268 12.75-3.604 2.55-7.723 3.57-12.356 3.57-3.089 0-5.664-.511-8.753-1.531-2.574-1.02-5.148-2.55-6.693-4.08l4.634-8.159c3.089 3.06 6.693 4.589 10.812 4.589 2.574 0 4.634-.509 6.693-2.039 1.544-1.53 3.604-3.57 4.634-7.14l2.059-4.08-26.772-59.669h11.326l21.109 47.939 21.109-47.939h10.812zm52.519 5.6c4.633 4.08 6.693 10.2 6.693 18.36v36.209h-10.297v-8.16c-2.059 2.55-4.634 5.1-7.723 6.63-3.604 1.53-7.208 2.04-11.842 2.04-6.693 0-12.356-1.53-16.475-5.1-4.119-3.06-6.178-7.65-6.178-12.75s2.059-9.689 5.663-12.749c4.119-3.06 10.297-4.59 18.535-4.59h17.505v-2.04c0-4.59-1.545-8.16-4.119-10.71-2.574-2.55-6.693-3.57-12.356-3.57-3.604 0-7.208.51-10.297 1.53-3.604 1.02-6.178 2.55-8.753 4.59l-4.634-8.16c3.09-2.55 6.694-4.59 11.327-5.61 4.634-1.02 8.753-2.04 13.901-2.04 8.238 0 14.416 2.04 19.05 6.12zm-10.812 43.859c3.089-2.04 5.148-4.59 6.693-7.65v-8.159h-16.99c-9.268 0-13.901 3.059-13.901 9.179 0 3.06 1.03 5.61 3.604 7.14 2.574 1.53 5.663 2.55 9.782 2.55s7.723-1.02 10.812-3.06zm87-49.459v60.179h-10.812v-50.489h-26.258l-.515 13.259c-.514 8.16-1.029 14.79-2.059 20.4-1.03 5.61-2.574 9.69-5.148 12.75-2.575 3.06-5.664 5.1-10.297 5.1-2.06 0-4.119-.51-6.693-1.02l.514-9.18c1.03 0 2.06.51 2.575.51 3.089 0 5.148-1.53 6.693-4.08 1.544-2.55 2.574-5.61 3.089-9.18.515-3.57 1.029-8.67 1.029-15.3l1.03-21.929h46.852v-1.02zm64.357 25.49c4.118 3.569 6.178 8.159 6.178 14.279 0 6.63-2.06 11.22-6.693 14.79-4.634 3.57-10.812 5.1-18.535 5.1h-26.257v-60.179h10.811v20.4h16.991c7.722.51 13.386 2.55 17.505 5.61zm-8.753 23.459c2.574-2.04 3.604-5.1 3.604-9.18s-1.03-6.629-3.604-8.669c-2.574-2.04-6.178-2.551-11.327-3.061h-14.416v23.46h14.416c4.634.51 8.753-.51 11.327-2.55zm28.838-48.949h10.812v25.499h34.495v-25.499h10.812v60.179h-10.812v-24.99h-34.495v24.99H551.41v-60.179zm118.408 5.6c4.633 4.08 6.693 10.2 6.693 18.36v36.209h-10.297v-8.16c-2.059 2.55-4.634 5.1-7.723 6.63-3.604 1.53-7.208 2.04-11.842 2.04-6.693 0-12.356-1.53-16.475-5.1-4.118-3.06-6.178-7.65-6.178-12.75s2.059-9.689 5.663-12.749c3.604-3.06 10.298-4.59 18.535-4.59h17.505v-2.04c0-4.59-1.545-8.16-4.119-10.71-2.574-2.55-6.693-3.57-12.356-3.57-3.604 0-7.208.51-10.297 1.53-3.604 1.02-6.178 2.55-8.753 4.59l-4.633-8.16c3.089-2.55 6.693-4.59 11.326-5.61 4.119-1.53 8.753-2.04 13.901-2.04 8.238 0 14.931 2.04 19.05 6.12zm-10.812 43.859c3.089-2.04 5.148-4.59 6.693-7.65v-8.159h-16.99c-9.267 0-13.901 3.059-13.901 9.179 0 3.06 1.03 5.61 3.604 7.14 2.574 1.53 5.663 2.55 9.782 2.55s7.723-1.02 10.812-3.06zm85.984-49.459v60.179h-9.782v-18.87h-18.535l-13.386 18.87h-11.842l14.931-20.4c-4.634-1.53-8.237-3.57-10.297-6.63-2.574-3.06-3.604-7.14-3.604-11.73 0-6.63 2.574-12.239 7.208-15.809 4.634-3.57 11.327-5.61 19.564-5.61h25.743zm-38.099 30.089c2.574 2.04 6.178 3.06 11.327 3.06h16.99v-23.459h-16.476c-10.297 0-15.96 4.079-15.96 11.729 0 4.08 1.545 7.14 4.119 8.67zm130.782-24.489c4.633 4.08 6.693 10.2 6.693 18.36v36.209h-10.298v-8.16c-2.059 2.55-4.633 5.1-7.722 6.63-3.604 1.53-7.208 2.04-11.842 2.04-6.693 0-12.356-1.53-16.475-5.1-4.119-3.06-6.178-7.65-6.178-12.75s2.059-9.689 5.663-12.749c3.604-3.06 10.297-4.59 18.535-4.59h17.505v-2.04c0-4.59-1.545-8.16-4.119-10.71-2.575-2.55-6.693-3.57-12.357-3.57-3.604 0-7.207.51-10.297 1.53-3.604 1.02-6.178 2.55-8.752 4.59l-4.634-8.16c3.089-2.55 6.693-4.59 11.327-5.61 4.119-1.53 8.752-2.04 13.901-2.04 8.238 0 14.931 2.04 19.05 6.12zm-10.813 43.859c3.09-2.04 5.149-4.59 6.694-7.65v-8.159h-16.991c-9.267 0-13.9 3.059-13.9 9.179 0 3.06 1.029 5.61 3.603 7.14 2.575 1.53 5.664 2.55 9.783 2.55 4.118 0 7.722-1.02 10.811-3.06zm82.889-45.899c4.634 2.55 8.238 6.12 10.812 10.71 2.574 4.59 4.119 9.69 4.119 15.81 0 6.12-1.545 11.219-4.119 15.809s-6.178 8.16-10.812 10.71c-4.633 2.55-9.782 4.08-15.96 4.08-4.119 0-8.238-1.02-11.842-2.55-3.604-1.53-6.693-4.08-9.267-7.14v31.11h-10.812v-82.109h10.297v9.69c2.574-3.06 5.664-5.61 9.267-7.65 3.604-1.53 7.723-2.55 12.357-2.55 6.178 0 11.327 1.53 15.96 4.08zm-6.178 44.879c3.089-1.53 5.664-4.08 7.208-7.65 1.545-3.06 2.574-7.14 2.574-11.22 0-4.08-1.029-7.649-2.574-11.219-1.544-3.06-4.119-5.61-7.208-7.65-3.089-1.53-6.693-2.55-10.297-2.55-3.604 0-7.208 1.02-10.297 2.55-3.089 1.53-5.664 4.08-7.208 7.65-1.545 3.06-2.574 6.629-2.574 11.219 0 4.08 1.029 7.65 2.574 11.22 1.544 3.06 4.119 5.61 7.208 7.65 3.089 2.04 6.693 2.55 10.297 2.55 3.604 0 7.208-.51 10.297-2.55zm74.642 11.738l-17.505-22.949-17.505 22.949h-12.356l23.683-30.599-22.654-29.07h12.357l16.475 21.42 16.475-21.42h11.842l-22.653 29.07 24.198 30.599h-12.357zm26.257-60.177h10.82v43.859l37.07-43.859h9.78v60.179h-10.81v-43.86l-37.07 43.86h-10.3v-60.179h.51zm126.66 9.69h-22.14v50.489h-10.81v-50.489h-22.14v-9.69h55.09v9.69zm65.39 23.96h-48.91c.52 5.1 3.09 9.689 7.21 12.749 4.12 3.06 8.75 4.59 14.93 4.59 7.21 0 12.87-2.55 17.5-7.14l6.18 7.14c-2.57 3.06-6.18 5.61-10.29 7.14-4.12 1.53-8.76 2.55-13.39 2.55-6.18 0-11.84-1.53-16.99-4.08-5.15-2.55-8.75-6.12-11.33-10.71-2.57-4.59-4.12-10.199-4.12-15.809 0-5.61 1.55-11.22 4.12-15.81 2.58-4.59 6.18-8.16 10.81-10.71 4.64-2.55 9.79-4.08 15.45-4.08s10.81 1.53 15.45 4.08c4.63 2.55 8.23 6.12 10.81 10.71 2.57 4.59 3.6 10.2 3.6 15.81-.51 1.02-.51 2.04-1.03 3.57zm-42.73-20.4c-3.61 3.06-5.66 7.14-6.18 12.24h38.61c-.51-5.1-2.57-9.18-6.17-12.24-3.61-3.06-7.73-4.59-13.39-4.59-5.15 0-9.27 1.53-12.87 4.59zm81.33 21.429h-12.35v25.5h-10.81v-60.179h10.81v25.499h12.87l19.56-25.499h11.84l-23.16 29.069 24.71 31.11h-12.87l-20.6-25.5zm97.83-24.989h-22.14v50.489H1300v-50.489h-22.14v-9.69h55.09v9.69zm74.65-9.69l-29.35 65.789c-2.57 6.12-5.66 10.2-9.26 12.75-3.61 2.55-7.73 3.57-12.36 3.57-3.09 0-5.66-.511-8.75-1.531-2.58-1.02-5.15-2.55-6.7-4.08l4.64-8.159c3.09 3.06 6.69 4.589 10.81 4.589 2.57 0 4.63-.509 6.69-2.039 1.55-1.53 3.61-3.57 4.64-7.14l2.06-4.08-26.78-59.669h11.33l21.11 47.939 21.11-47.939h10.81zm59.22 3.56c4.63 2.55 8.23 6.12 10.81 10.71 2.57 4.59 4.12 9.69 4.12 15.81 0 6.12-1.55 11.219-4.12 15.809-2.58 4.59-6.18 8.16-10.81 10.71-4.64 2.55-9.79 4.08-15.96 4.08-4.12 0-8.24-1.02-11.85-2.55-3.6-1.53-6.69-4.08-9.26-7.14v31.11h-10.82v-82.109h10.3v9.69c2.58-3.06 5.67-5.61 9.27-7.65 3.6-1.53 7.72-2.55 12.36-2.55 6.17 0 11.32 1.53 15.96 4.08zm-6.18 44.879c3.09-1.53 5.66-4.08 7.21-7.65 1.54-3.06 2.57-7.14 2.57-11.22 0-4.08-1.03-7.649-2.57-11.219-1.55-3.06-4.12-5.61-7.21-7.65-3.09-1.53-6.7-2.55-10.3-2.55-3.6 0-7.21 1.02-10.3 2.55-3.09 1.53-5.66 4.08-7.2 7.65-1.55 3.06-2.58 6.629-2.58 11.219 0 4.08 1.03 7.65 2.58 11.22 1.54 3.06 4.11 5.61 7.2 7.65s6.7 2.55 10.3 2.55c3.6 0 7.21-.51 10.3-2.55zm77.22-42.839c4.63 4.08 6.69 10.2 6.69 18.36v36.209h-10.3v-8.16c-2.06 2.55-4.63 5.1-7.72 6.63-3.61 1.53-7.21 2.04-11.84 2.04-6.7 0-12.36-1.53-16.48-5.1-4.12-3.06-6.18-7.65-6.18-12.75s2.06-9.689 5.67-12.749c3.6-3.06 10.29-4.59 18.53-4.59h17.51v-2.04c0-4.59-1.55-8.16-4.12-10.71-2.58-2.55-6.7-3.57-12.36-3.57-3.6 0-7.21.51-10.3 1.53-3.6 1.02-6.17 2.55-8.75 4.59l-4.63-8.16c3.09-2.55 6.69-4.59 11.32-5.61 4.12-1.53 8.76-2.04 13.91-2.04 8.23 0 14.41 2.04 19.05 6.12zm-10.82 43.859c3.09-2.04 5.15-4.59 6.7-7.65v-8.159h-16.99c-9.27 0-13.9 3.059-13.9 9.179 0 3.06 1.02 5.61 3.6 7.14 2.57 1.53 5.66 2.55 9.78 2.55 4.12 0 7.72-1.02 10.81-3.06zM954.539 240.216h19.049L862.38.52h-18.019L733.153 240.216h19.049l36.04-78.539h130.257l36.04 78.539zM795.45 146.377l57.663-126.478 58.178 126.478H795.45z" fill="#fff"/></svg>